<svg width="30" height="30" viewBox="0 0 30 30" fill="none" xmlns="http://www.w3.org/2000/svg">
<circle cx="15" cy="15" r="15" fill="#262626"/>
<path d="M22.9999 10.4254C22.4483 10.6597 21.848 10.8283 21.2297 10.894C21.8716 10.5185 22.3523 9.92515 22.5817 9.22539C21.9793 9.57827 21.3193 9.82572 20.6312 9.95675C20.3435 9.65396 19.9957 9.41274 19.6092 9.24813C19.2228 9.08351 18.8061 8.99903 18.385 8.99995C16.6815 8.99995 15.3115 10.3597 15.3115 12.0283C15.3115 12.2627 15.3403 12.497 15.3872 12.7224C12.8364 12.5911 10.5615 11.3911 9.04903 9.55379C8.77345 10.0173 8.62903 10.5451 8.63081 11.0822C8.63081 12.1331 9.17341 13.0597 10.0008 13.6047C9.51323 13.5858 9.03703 13.4538 8.61098 13.2195V13.2567C8.61098 14.7283 9.66735 15.9479 11.0752 16.2283C10.8109 16.296 10.5389 16.3306 10.2658 16.3313C10.0657 16.3313 9.87646 16.3118 9.68537 16.2851C10.0747 17.4851 11.2086 18.3567 12.5588 18.3851C11.5025 19.1999 10.1793 19.6792 8.74258 19.6792C8.4848 19.6792 8.24684 19.6704 7.99988 19.642C9.36269 20.5029 10.9797 20.9999 12.7211 20.9999C18.3742 20.9999 21.4676 16.3881 21.4676 12.3852C21.4676 12.2538 21.4676 12.1224 21.4586 11.9911C22.0571 11.5597 22.5817 11.0254 22.9999 10.4254Z" fill="white"/>
</svg>
