<svg width="30" height="30" viewBox="0 0 30 30" fill="none" xmlns="http://www.w3.org/2000/svg">
<circle cx="15" cy="15" r="15" fill="#262626"/>
<path d="M20.6983 10.8295C19.7257 10.4391 18.6994 10.1605 17.6449 10.0006C17.6354 9.99916 17.6256 10.0004 17.6168 10.004C17.6081 10.0077 17.6009 10.0137 17.5962 10.0211C17.464 10.2261 17.3178 10.4942 17.2156 10.7041C16.079 10.5532 14.9228 10.5532 13.7862 10.7041C13.6722 10.4702 13.5433 10.2422 13.4 10.0211C13.3952 10.0137 13.3879 10.0079 13.3792 10.0042C13.3705 10.0006 13.3608 9.99928 13.3512 10.0006C12.2966 10.1596 11.27 10.4384 10.2978 10.8295C10.2895 10.8323 10.2825 10.8375 10.2781 10.8443C8.33378 13.3853 7.80035 15.864 8.06191 18.3115C8.06285 18.323 8.07129 18.3344 8.0816 18.3418C9.21383 19.0754 10.4803 19.6354 11.8269 19.9981C11.8364 20.0007 11.8466 20.0006 11.856 19.9978C11.8655 19.995 11.8737 19.9897 11.8794 19.9825C12.1681 19.6381 12.425 19.2749 12.6462 18.8928C12.6508 18.885 12.6524 18.876 12.6507 18.8673C12.649 18.8586 12.6442 18.8505 12.6369 18.8444C12.632 18.8404 12.6263 18.8374 12.62 18.8354C12.2161 18.6997 11.8249 18.5365 11.45 18.3476C11.4395 18.3424 11.4317 18.3339 11.4283 18.3238C11.4248 18.3137 11.4258 18.3028 11.4313 18.2934C11.4344 18.2873 11.4393 18.282 11.4453 18.2779C11.5241 18.2262 11.6028 18.1721 11.6778 18.118C11.6844 18.1133 11.6924 18.1103 11.7008 18.1093C11.7092 18.1083 11.7178 18.1093 11.7256 18.1122C14.1809 19.0929 16.8387 19.0929 19.264 18.1122C19.2721 18.1092 19.281 18.1081 19.2897 18.1091C19.2985 18.1101 19.3068 18.1132 19.3137 18.118C19.3887 18.1721 19.4674 18.2262 19.5462 18.2779C19.5525 18.2819 19.5577 18.2873 19.5611 18.2936C19.5645 18.2998 19.5661 18.3067 19.5657 18.3136C19.5653 18.3205 19.563 18.3272 19.559 18.3331C19.5549 18.3391 19.5492 18.344 19.5424 18.3476C19.1684 18.5383 18.7767 18.7012 18.3715 18.8346C18.365 18.8367 18.3592 18.8399 18.3543 18.8442C18.3494 18.8484 18.3457 18.8536 18.3434 18.8592C18.3412 18.8647 18.3403 18.8705 18.3408 18.8763C18.3413 18.882 18.3431 18.8877 18.3462 18.8928C18.5712 19.2741 18.829 19.6381 19.1121 19.9825C19.1178 19.9897 19.126 19.995 19.1354 19.9978C19.1449 20.0006 19.1551 20.0007 19.1646 19.9981C20.5135 19.6365 21.782 19.0764 22.9155 18.3418C22.9212 18.3384 22.9259 18.3339 22.9293 18.3286C22.9327 18.3234 22.9347 18.3175 22.9352 18.3115C23.2483 15.4819 22.4111 13.0237 20.7171 10.8451C20.7154 10.8415 20.7128 10.8383 20.7096 10.8356C20.7064 10.8329 20.7025 10.8308 20.6983 10.8295ZM13.0128 16.8208C12.2731 16.8208 11.6647 16.2272 11.6647 15.4991C11.6647 14.7702 12.2619 14.1765 13.0128 14.1765C13.7694 14.1765 14.3722 14.7751 14.3609 15.4991C14.3609 16.2272 13.7637 16.8208 13.0128 16.8208ZM17.9965 16.8208C17.2578 16.8208 16.6484 16.2272 16.6484 15.4991C16.6484 14.7702 17.2456 14.1765 17.9965 14.1765C18.753 14.1765 19.3568 14.7751 19.3446 15.4991C19.3446 16.2272 18.753 16.8208 17.9965 16.8208Z" fill="white"/>
</svg>
