<svg width="30" height="30" viewBox="0 0 30 30" fill="none" xmlns="http://www.w3.org/2000/svg">
<circle cx="15" cy="15" r="15" fill="white"/>
<path fill-rule="evenodd" clip-rule="evenodd" d="M12.4078 7.04497C13.2076 7.00815 13.4626 6.99997 15.4999 6.99997C17.5372 6.99997 17.7922 7.00883 18.5912 7.04497C19.3903 7.08111 19.9358 7.20861 20.4131 7.39338C20.9128 7.58224 21.3662 7.87747 21.7412 8.25929C22.1231 8.63361 22.4176 9.08633 22.6058 9.58679C22.7912 10.0641 22.9181 10.6095 22.9549 11.4072C22.9917 12.2084 22.9999 12.4634 22.9999 14.5C22.9999 16.5372 22.991 16.7922 22.9549 17.592C22.9187 18.3897 22.7912 18.9352 22.6058 19.4125C22.4176 19.913 22.1226 20.3665 21.7412 20.7413C21.3662 21.1232 20.9128 21.4177 20.4131 21.6059C19.9358 21.7913 19.3903 21.9182 18.5926 21.955C17.7922 21.9918 17.5372 22 15.4999 22C13.4626 22 13.2076 21.9911 12.4078 21.955C11.6101 21.9188 11.0647 21.7913 10.5874 21.6059C10.0869 21.4177 9.63339 21.1226 9.25851 20.7413C8.87696 20.3668 8.58168 19.9135 8.39329 19.4132C8.20851 18.9359 8.0817 18.3904 8.04488 17.5927C8.00806 16.7916 7.99988 16.5366 7.99988 14.5C7.99988 12.4627 8.00874 12.2077 8.04488 11.4086C8.08101 10.6095 8.20851 10.0641 8.39329 9.58679C8.58196 9.08639 8.87746 8.63314 9.2592 8.25861C9.63354 7.87713 10.0866 7.58186 10.5867 7.39338C11.064 7.20861 11.6094 7.08179 12.4072 7.04497H12.4078ZM18.5306 8.39497C17.7397 8.35883 17.5024 8.35133 15.4999 8.35133C13.4974 8.35133 13.2601 8.35883 12.4692 8.39497C11.7376 8.42838 11.3408 8.55042 11.0762 8.65338C10.7265 8.78974 10.4762 8.95133 10.2137 9.21383C9.96491 9.45591 9.77341 9.75062 9.65329 10.0763C9.55033 10.3409 9.42829 10.7377 9.39488 11.4693C9.35874 12.2602 9.35124 12.4975 9.35124 14.5C9.35124 16.5025 9.35874 16.7397 9.39488 17.5307C9.42829 18.2622 9.55033 18.6591 9.65329 18.9236C9.77329 19.2488 9.96488 19.5441 10.2137 19.7861C10.4558 20.035 10.751 20.2266 11.0762 20.3466C11.3408 20.4495 11.7376 20.5716 12.4692 20.605C13.2601 20.6411 13.4967 20.6486 15.4999 20.6486C17.5031 20.6486 17.7397 20.6411 18.5306 20.605C19.2622 20.5716 19.659 20.4495 19.9235 20.3466C20.2733 20.2102 20.5235 20.0486 20.786 19.7861C21.0349 19.5441 21.2265 19.2488 21.3465 18.9236C21.4494 18.6591 21.5715 18.2622 21.6049 17.5307C21.641 16.7397 21.6485 16.5025 21.6485 14.5C21.6485 12.4975 21.641 12.2602 21.6049 11.4693C21.5715 10.7377 21.4494 10.3409 21.3465 10.0763C21.2101 9.72656 21.0485 9.47633 20.786 9.21383C20.5439 8.96502 20.2492 8.77352 19.9235 8.65338C19.659 8.55042 19.2622 8.42838 18.5306 8.39497ZM14.5419 16.812C15.0769 17.0347 15.6726 17.0648 16.2273 16.8971C16.782 16.7293 17.2613 16.3742 17.5832 15.8924C17.9052 15.4106 18.0499 14.8319 17.9926 14.2553C17.9354 13.6786 17.6797 13.1397 17.2692 12.7307C17.0075 12.4692 16.6912 12.2689 16.3428 12.1444C15.9945 12.0198 15.6229 11.9741 15.2548 12.0104C14.8866 12.0467 14.5311 12.1642 14.2138 12.3544C13.8966 12.5446 13.6254 12.8027 13.4199 13.1103C13.2143 13.4179 13.0796 13.7672 13.0252 14.1331C12.9709 14.499 12.9984 14.8724 13.1057 15.2265C13.213 15.5805 13.3975 15.9063 13.6458 16.1805C13.8942 16.4546 14.2002 16.6703 14.5419 16.812ZM12.774 11.7741C13.1319 11.4161 13.5569 11.1321 14.0246 10.9384C14.4923 10.7447 14.9936 10.645 15.4999 10.645C16.0061 10.645 16.5074 10.7447 16.9751 10.9384C17.4428 11.1321 17.8678 11.4161 18.2258 11.7741C18.5838 12.132 18.8677 12.557 19.0615 13.0247C19.2552 13.4924 19.3549 13.9937 19.3549 14.5C19.3549 15.0062 19.2552 15.5075 19.0615 15.9752C18.8677 16.4429 18.5838 16.8679 18.2258 17.2259C17.5028 17.9488 16.5223 18.355 15.4999 18.355C14.4775 18.355 13.4969 17.9488 12.774 17.2259C12.051 16.5029 11.6449 15.5224 11.6449 14.5C11.6449 13.4776 12.051 12.497 12.774 11.7741ZM20.2099 11.2191C20.2986 11.1354 20.3696 11.0348 20.4187 10.9231C20.4678 10.8115 20.4941 10.6912 20.4958 10.5692C20.4976 10.4473 20.4749 10.3263 20.4291 10.2132C20.3832 10.1002 20.3152 9.99759 20.2289 9.91136C20.1427 9.82513 20.0401 9.75708 19.9271 9.71123C19.8141 9.66539 19.693 9.64268 19.5711 9.64446C19.4491 9.64624 19.3288 9.67246 19.2172 9.72158C19.1056 9.7707 19.0049 9.84172 18.9212 9.93042C18.7585 10.1029 18.6694 10.3321 18.6729 10.5692C18.6763 10.8064 18.7721 11.0328 18.9398 11.2005C19.1075 11.3682 19.3339 11.464 19.5711 11.4674C19.8082 11.4709 20.0374 11.3818 20.2099 11.2191Z" fill="black"/>
</svg>
